<?xml version="1.0" encoding="UTF-8" standalone="no"?>
<svg
   xmlns:dc="http://purl.org/dc/elements/1.1/"
   xmlns:cc="http://creativecommons.org/ns#"
   xmlns:rdf="http://www.w3.org/1999/02/22-rdf-syntax-ns#"
   xmlns:svg="http://www.w3.org/2000/svg"
   xmlns="http://www.w3.org/2000/svg"
   xmlns:sodipodi="http://sodipodi.sourceforge.net/DTD/sodipodi-0.dtd"
   xmlns:inkscape="http://www.inkscape.org/namespaces/inkscape"
   inkscape:version="1.0 (4035a4fb49, 2020-05-01)"
   inkscape:export-ydpi="96"
   inkscape:export-xdpi="96"
   inkscape:export-filename="/home/claus/src/filuxe/artwork/logo.png"
   sodipodi:docname="logo.svg"
   id="svg1494"
   version="1.1"
   viewBox="0 0 210 297"
   height="297mm"
   width="210mm">
  <defs
     id="defs1488" />
  <sodipodi:namedview
     inkscape:window-maximized="1"
     inkscape:window-y="0"
     inkscape:window-x="0"
     inkscape:window-height="1018"
     inkscape:window-width="2560"
     showgrid="false"
     inkscape:document-rotation="0"
     inkscape:current-layer="layer1"
     inkscape:document-units="mm"
     inkscape:cy="491.62784"
     inkscape:cx="30.293658"
     inkscape:zoom="0.49497475"
     inkscape:pageshadow="2"
     inkscape:pageopacity="0.0"
     borderopacity="1.0"
     bordercolor="#666666"
     pagecolor="#ffffff"
     id="base" />
  <metadata
     id="metadata1491">
    <rdf:RDF>
      <cc:Work
         rdf:about="">
        <dc:format>image/svg+xml</dc:format>
        <dc:type
           rdf:resource="http://purl.org/dc/dcmitype/StillImage" />
      </cc:Work>
    </rdf:RDF>
  </metadata>
  <g
     id="layer1"
     inkscape:groupmode="layer"
     inkscape:label="Lag 1">
    <path
       sodipodi:nodetypes="csccasc"
       id="path2059"
       d="m 154.12587,77.047848 c 0,0 -47.26182,12.398532 -57.126829,36.581472 -3.77731,9.25965 -59.896081,79.45617 -59.896081,79.45617 l 78.17208,-7.79978 c 0,0 2.56134,-29.18134 6.71926,-43.12189 5.4339,-18.21863 21.47745,-41.78024 23.52427,-51.957894 1.4367,-7.143881 8.6073,-13.158078 8.6073,-13.158078 z"
       style="fill:#000000;fill-opacity:1;stroke:#000000;stroke-width:0.264583px;stroke-linecap:butt;stroke-linejoin:miter;stroke-opacity:1" />
    <ellipse
       ry="18.374254"
       rx="19.275322"
       cy="77.279358"
       cx="153.55019"
       id="path2073"
       style="fill:#000000;fill-opacity:1;stroke:#050607;stroke-width:0.0269999;stroke-linecap:round;stroke-linejoin:miter;stroke-miterlimit:4;stroke-dasharray:none;stroke-opacity:1;paint-order:markers fill stroke" />
    <ellipse
       ry="18.374254"
       rx="19.275322"
       cy="111.63042"
       cx="22.148129"
       id="ellipse2081"
       style="fill:#000000;fill-opacity:1;stroke:#050607;stroke-width:0.0269999;stroke-linecap:round;stroke-linejoin:miter;stroke-miterlimit:4;stroke-dasharray:none;stroke-opacity:1;paint-order:markers fill stroke" />
    <rect
       transform="matrix(0.96641334,0.25699271,-0.36028808,0.93284109,0,0)"
       ry="20.254032"
       rx="5.4121742"
       y="144.47612"
       x="96.478455"
       height="54.226562"
       width="104.93422"
       id="rect2083"
       style="fill:#000000;fill-opacity:1;stroke:#050607;stroke-width:0.02708;stroke-linecap:round;stroke-linejoin:miter;stroke-miterlimit:4;stroke-dasharray:none;stroke-opacity:1;paint-order:markers fill stroke" />
    <path
       style="fill:#000000;fill-opacity:1;stroke:#000000;stroke-width:0.264583px;stroke-linecap:butt;stroke-linejoin:miter;stroke-opacity:1"
       d="m 101.38683,135.10458 c 0,0 6.10333,-26.7157 -0.88941,-36.797284 C 91.077438,84.726313 70.779866,77.028104 54.488985,79.818493 40.849697,82.154703 23.316624,107.23521 23.316624,107.23521 c 0,0 29.538394,2.78725 40.210719,7.98657 7.304418,3.55854 -0.254808,27.89459 -0.254808,27.89459 -5.351714,12.18702 -26.169575,49.96912 -26.169575,49.96912 z"
       id="path2107"
       sodipodi:nodetypes="caacsscc" />
    <path
       style="fill:#000000;fill-opacity:1;stroke:#000000;stroke-width:0.264583px;stroke-linecap:butt;stroke-linejoin:miter;stroke-opacity:1"
       d="m 63.02706,190.96613 c 18.25143,-4.91277 53.94079,-80.97896 91.10746,-70.95931 17.17985,4.63146 19.91999,49.52346 19.91999,49.52346 0,0 -24.07914,-10.12072 -33.98616,-10.59159 -13.78668,-0.65527 -8.41156,54.26609 -8.41156,54.26609 z"
       id="path2109"
       sodipodi:nodetypes="cacscc" />
    <ellipse
       ry="18.374254"
       rx="19.275322"
       cy="172.63963"
       cx="175.71315"
       id="ellipse2111"
       style="fill:#000000;fill-opacity:1;stroke:#050607;stroke-width:0.0269999;stroke-linecap:round;stroke-linejoin:miter;stroke-miterlimit:4;stroke-dasharray:none;stroke-opacity:1;paint-order:markers fill stroke" />
  </g>
</svg>
